<mxfile host="app.diagrams.net" agent="Mozilla/5.0 (Windows NT 6.1; Win64; x64) AppleWebKit/537.36 (KHTML, like Gecko) Chrome/109.0.0.0 Safari/537.36" version="24.7.17">
  <diagram name="Page-1" id="XclZVERu2WdhKHsQe5fh">
    <mxGraphModel dx="824" dy="651" grid="1" gridSize="10" guides="1" tooltips="1" connect="1" arrows="1" fold="1" page="1" pageScale="1" pageWidth="850" pageHeight="1100" math="1" shadow="0">
      <root>
        <mxCell id="0" />
        <mxCell id="1" parent="0" />
        <mxCell id="Y9bTYKxA64llq5RolbbK-25" value="" style="endArrow=none;html=1;rounded=0;strokeWidth=2;strokeColor=#999999;" edge="1" parent="1">
          <mxGeometry width="50" height="50" relative="1" as="geometry">
            <mxPoint x="20" y="240" as="sourcePoint" />
            <mxPoint x="680" y="240" as="targetPoint" />
          </mxGeometry>
        </mxCell>
        <mxCell id="Y9bTYKxA64llq5RolbbK-1" value="" style="endArrow=none;html=1;rounded=0;strokeWidth=3;fillColor=#e1d5e7;strokeColor=#9673a6;" edge="1" parent="1">
          <mxGeometry width="50" height="50" relative="1" as="geometry">
            <mxPoint x="40" y="200" as="sourcePoint" />
            <mxPoint x="150" y="200" as="targetPoint" />
          </mxGeometry>
        </mxCell>
        <mxCell id="Y9bTYKxA64llq5RolbbK-2" value="" style="endArrow=none;html=1;rounded=0;strokeWidth=3;fillColor=#f8cecc;strokeColor=#b85450;" edge="1" parent="1">
          <mxGeometry width="50" height="50" relative="1" as="geometry">
            <mxPoint x="40" y="280" as="sourcePoint" />
            <mxPoint x="150" y="280" as="targetPoint" />
          </mxGeometry>
        </mxCell>
        <mxCell id="Y9bTYKxA64llq5RolbbK-3" value="" style="endArrow=none;html=1;rounded=0;strokeWidth=3;fillColor=#e1d5e7;strokeColor=#9673a6;" edge="1" parent="1">
          <mxGeometry width="50" height="50" relative="1" as="geometry">
            <mxPoint x="170" y="280" as="sourcePoint" />
            <mxPoint x="280" y="280" as="targetPoint" />
          </mxGeometry>
        </mxCell>
        <mxCell id="Y9bTYKxA64llq5RolbbK-4" value="" style="endArrow=none;html=1;rounded=0;strokeWidth=3;fillColor=#f8cecc;strokeColor=#b85450;" edge="1" parent="1">
          <mxGeometry width="50" height="50" relative="1" as="geometry">
            <mxPoint x="170" y="200" as="sourcePoint" />
            <mxPoint x="280" y="200" as="targetPoint" />
          </mxGeometry>
        </mxCell>
        <mxCell id="Y9bTYKxA64llq5RolbbK-5" value="" style="endArrow=none;html=1;rounded=0;strokeWidth=3;fillColor=#f8cecc;strokeColor=#b85450;" edge="1" parent="1">
          <mxGeometry width="50" height="50" relative="1" as="geometry">
            <mxPoint x="150" y="280" as="sourcePoint" />
            <mxPoint x="170" y="200" as="targetPoint" />
          </mxGeometry>
        </mxCell>
        <mxCell id="Y9bTYKxA64llq5RolbbK-6" value="" style="endArrow=none;html=1;rounded=0;strokeWidth=3;fillColor=#e1d5e7;strokeColor=#9673a6;" edge="1" parent="1">
          <mxGeometry width="50" height="50" relative="1" as="geometry">
            <mxPoint x="150" y="200" as="sourcePoint" />
            <mxPoint x="170" y="280" as="targetPoint" />
          </mxGeometry>
        </mxCell>
        <mxCell id="Y9bTYKxA64llq5RolbbK-8" value="&lt;font color=&quot;#a680b8&quot; style=&quot;font-size: 16px;&quot;&gt;&lt;b&gt;$$V_{ip}$$&lt;/b&gt;&lt;/font&gt;" style="text;html=1;align=center;verticalAlign=middle;whiteSpace=wrap;rounded=0;" vertex="1" parent="1">
          <mxGeometry x="10" y="170" width="60" height="30" as="geometry" />
        </mxCell>
        <mxCell id="Y9bTYKxA64llq5RolbbK-9" value="&lt;font color=&quot;#ea6b66&quot; style=&quot;font-size: 16px;&quot;&gt;&lt;b&gt;$$V_{im}$$&lt;/b&gt;&lt;/font&gt;" style="text;html=1;align=center;verticalAlign=middle;whiteSpace=wrap;rounded=0;" vertex="1" parent="1">
          <mxGeometry x="10" y="250" width="60" height="30" as="geometry" />
        </mxCell>
        <mxCell id="Y9bTYKxA64llq5RolbbK-10" value="" style="verticalLabelPosition=bottom;verticalAlign=top;html=1;shape=mxgraph.basic.x;strokeColor=#FF0000;fillColor=#FF0000;" vertex="1" parent="1">
          <mxGeometry x="119" y="320" width="41" height="38" as="geometry" />
        </mxCell>
        <mxCell id="Y9bTYKxA64llq5RolbbK-11" value="" style="endArrow=none;html=1;rounded=0;strokeWidth=3;fillColor=#e1d5e7;strokeColor=#9673a6;" edge="1" parent="1">
          <mxGeometry width="50" height="50" relative="1" as="geometry">
            <mxPoint x="400" y="134" as="sourcePoint" />
            <mxPoint x="510" y="134" as="targetPoint" />
          </mxGeometry>
        </mxCell>
        <mxCell id="Y9bTYKxA64llq5RolbbK-12" value="" style="endArrow=none;html=1;rounded=0;strokeWidth=3;fillColor=#f8cecc;strokeColor=#b85450;" edge="1" parent="1">
          <mxGeometry width="50" height="50" relative="1" as="geometry">
            <mxPoint x="400" y="214" as="sourcePoint" />
            <mxPoint x="510" y="214" as="targetPoint" />
          </mxGeometry>
        </mxCell>
        <mxCell id="Y9bTYKxA64llq5RolbbK-13" value="" style="endArrow=none;html=1;rounded=0;strokeWidth=3;fillColor=#e1d5e7;strokeColor=#9673a6;" edge="1" parent="1">
          <mxGeometry width="50" height="50" relative="1" as="geometry">
            <mxPoint x="530" y="341" as="sourcePoint" />
            <mxPoint x="640" y="341" as="targetPoint" />
          </mxGeometry>
        </mxCell>
        <mxCell id="Y9bTYKxA64llq5RolbbK-14" value="" style="endArrow=none;html=1;rounded=0;strokeWidth=3;fillColor=#f8cecc;strokeColor=#b85450;" edge="1" parent="1">
          <mxGeometry width="50" height="50" relative="1" as="geometry">
            <mxPoint x="530" y="263" as="sourcePoint" />
            <mxPoint x="640" y="263" as="targetPoint" />
          </mxGeometry>
        </mxCell>
        <mxCell id="Y9bTYKxA64llq5RolbbK-15" value="" style="endArrow=none;html=1;rounded=0;strokeWidth=3;fillColor=#f8cecc;strokeColor=#b85450;" edge="1" parent="1">
          <mxGeometry width="50" height="50" relative="1" as="geometry">
            <mxPoint x="530" y="264" as="sourcePoint" />
            <mxPoint x="510" y="213" as="targetPoint" />
          </mxGeometry>
        </mxCell>
        <mxCell id="Y9bTYKxA64llq5RolbbK-16" value="" style="endArrow=none;html=1;rounded=0;strokeWidth=3;fillColor=#e1d5e7;strokeColor=#9673a6;" edge="1" parent="1">
          <mxGeometry width="50" height="50" relative="1" as="geometry">
            <mxPoint x="510" y="133" as="sourcePoint" />
            <mxPoint x="530" y="343" as="targetPoint" />
          </mxGeometry>
        </mxCell>
        <mxCell id="Y9bTYKxA64llq5RolbbK-18" value="" style="endArrow=blockThin;html=1;rounded=0;endFill=1;startArrow=blockThin;startFill=1;" edge="1" parent="1">
          <mxGeometry width="50" height="50" relative="1" as="geometry">
            <mxPoint x="80" y="280" as="sourcePoint" />
            <mxPoint x="80" y="200" as="targetPoint" />
          </mxGeometry>
        </mxCell>
        <mxCell id="Y9bTYKxA64llq5RolbbK-19" value="&lt;font style=&quot;font-size: 16px;&quot;&gt;&lt;b style=&quot;&quot;&gt;$$V_{os}$$&lt;/b&gt;&lt;/font&gt;" style="text;html=1;align=center;verticalAlign=middle;whiteSpace=wrap;rounded=0;" vertex="1" parent="1">
          <mxGeometry x="70" y="213" width="60" height="30" as="geometry" />
        </mxCell>
        <mxCell id="Y9bTYKxA64llq5RolbbK-21" value="" style="endArrow=blockThin;html=1;rounded=0;endFill=1;startArrow=blockThin;startFill=1;" edge="1" parent="1">
          <mxGeometry width="50" height="50" relative="1" as="geometry">
            <mxPoint x="440" y="213" as="sourcePoint" />
            <mxPoint x="440" y="133" as="targetPoint" />
          </mxGeometry>
        </mxCell>
        <mxCell id="Y9bTYKxA64llq5RolbbK-22" value="&lt;font style=&quot;font-size: 16px;&quot;&gt;&lt;b style=&quot;&quot;&gt;$$V_{os}$$&lt;/b&gt;&lt;/font&gt;" style="text;html=1;align=center;verticalAlign=middle;whiteSpace=wrap;rounded=0;" vertex="1" parent="1">
          <mxGeometry x="430" y="153" width="60" height="30" as="geometry" />
        </mxCell>
        <mxCell id="Y9bTYKxA64llq5RolbbK-23" value="" style="endArrow=blockThin;html=1;rounded=0;endFill=1;startArrow=blockThin;startFill=1;" edge="1" parent="1">
          <mxGeometry width="50" height="50" relative="1" as="geometry">
            <mxPoint x="580" y="342" as="sourcePoint" />
            <mxPoint x="580" y="262" as="targetPoint" />
          </mxGeometry>
        </mxCell>
        <mxCell id="Y9bTYKxA64llq5RolbbK-24" value="&lt;font style=&quot;font-size: 16px;&quot;&gt;&lt;b style=&quot;&quot;&gt;$$V_{os}$$&lt;/b&gt;&lt;/font&gt;" style="text;html=1;align=center;verticalAlign=middle;whiteSpace=wrap;rounded=0;" vertex="1" parent="1">
          <mxGeometry x="570" y="282" width="60" height="30" as="geometry" />
        </mxCell>
        <mxCell id="Y9bTYKxA64llq5RolbbK-26" value="" style="verticalLabelPosition=bottom;verticalAlign=top;html=1;shape=mxgraph.basic.tick;strokeColor=#009900;fillColor=#009900;" vertex="1" parent="1">
          <mxGeometry x="440" y="320" width="40" height="40" as="geometry" />
        </mxCell>
        <mxCell id="Y9bTYKxA64llq5RolbbK-27" value="&lt;font color=&quot;#a680b8&quot; style=&quot;font-size: 16px;&quot;&gt;&lt;b&gt;$$V_{ip}$$&lt;/b&gt;&lt;/font&gt;" style="text;html=1;align=center;verticalAlign=middle;whiteSpace=wrap;rounded=0;" vertex="1" parent="1">
          <mxGeometry x="350" y="113" width="60" height="30" as="geometry" />
        </mxCell>
        <mxCell id="Y9bTYKxA64llq5RolbbK-28" value="&lt;font color=&quot;#ea6b66&quot; style=&quot;font-size: 16px;&quot;&gt;&lt;b&gt;$$V_{im}$$&lt;/b&gt;&lt;/font&gt;" style="text;html=1;align=center;verticalAlign=middle;whiteSpace=wrap;rounded=0;" vertex="1" parent="1">
          <mxGeometry x="350" y="193" width="60" height="30" as="geometry" />
        </mxCell>
      </root>
    </mxGraphModel>
  </diagram>
</mxfile>
